<svg id="visual" viewBox="0 0 900 600" width="900" height="600" xmlns="http://www.w3.org/2000/svg" xmlns:xlink="http://www.w3.org/1999/xlink" version="1.1"><rect x="0" y="0" width="900" height="600" fill="#171819"></rect><defs><linearGradient id="grad1_0" x1="33.3%" y1="0%" x2="100%" y2="100%"><stop offset="20%" stop-color="#54d550" stop-opacity="1"></stop><stop offset="80%" stop-color="#54d550" stop-opacity="1"></stop></linearGradient></defs><defs><linearGradient id="grad1_1" x1="33.3%" y1="0%" x2="100%" y2="100%"><stop offset="20%" stop-color="#54d550" stop-opacity="1"></stop><stop offset="80%" stop-color="#00bb6a" stop-opacity="1"></stop></linearGradient></defs><defs><linearGradient id="grad1_2" x1="33.3%" y1="0%" x2="100%" y2="100%"><stop offset="20%" stop-color="#009f78" stop-opacity="1"></stop><stop offset="80%" stop-color="#00bb6a" stop-opacity="1"></stop></linearGradient></defs><defs><linearGradient id="grad1_3" x1="33.3%" y1="0%" x2="100%" y2="100%"><stop offset="20%" stop-color="#009f78" stop-opacity="1"></stop><stop offset="80%" stop-color="#00827a" stop-opacity="1"></stop></linearGradient></defs><defs><linearGradient id="grad1_4" x1="33.3%" y1="0%" x2="100%" y2="100%"><stop offset="20%" stop-color="#006670" stop-opacity="1"></stop><stop offset="80%" stop-color="#00827a" stop-opacity="1"></stop></linearGradient></defs><defs><linearGradient id="grad1_5" x1="33.3%" y1="0%" x2="100%" y2="100%"><stop offset="20%" stop-color="#006670" stop-opacity="1"></stop><stop offset="80%" stop-color="#004959" stop-opacity="1"></stop></linearGradient></defs><defs><linearGradient id="grad1_6" x1="33.3%" y1="0%" x2="100%" y2="100%"><stop offset="20%" stop-color="#132f3b" stop-opacity="1"></stop><stop offset="80%" stop-color="#004959" stop-opacity="1"></stop></linearGradient></defs><defs><linearGradient id="grad1_7" x1="33.3%" y1="0%" x2="100%" y2="100%"><stop offset="20%" stop-color="#132f3b" stop-opacity="1"></stop><stop offset="80%" stop-color="#171819" stop-opacity="1"></stop></linearGradient></defs><defs><linearGradient id="grad2_0" x1="0%" y1="0%" x2="66.7%" y2="100%"><stop offset="20%" stop-color="#54d550" stop-opacity="1"></stop><stop offset="80%" stop-color="#54d550" stop-opacity="1"></stop></linearGradient></defs><defs><linearGradient id="grad2_1" x1="0%" y1="0%" x2="66.7%" y2="100%"><stop offset="20%" stop-color="#00bb6a" stop-opacity="1"></stop><stop offset="80%" stop-color="#54d550" stop-opacity="1"></stop></linearGradient></defs><defs><linearGradient id="grad2_2" x1="0%" y1="0%" x2="66.7%" y2="100%"><stop offset="20%" stop-color="#00bb6a" stop-opacity="1"></stop><stop offset="80%" stop-color="#009f78" stop-opacity="1"></stop></linearGradient></defs><defs><linearGradient id="grad2_3" x1="0%" y1="0%" x2="66.7%" y2="100%"><stop offset="20%" stop-color="#00827a" stop-opacity="1"></stop><stop offset="80%" stop-color="#009f78" stop-opacity="1"></stop></linearGradient></defs><defs><linearGradient id="grad2_4" x1="0%" y1="0%" x2="66.7%" y2="100%"><stop offset="20%" stop-color="#00827a" stop-opacity="1"></stop><stop offset="80%" stop-color="#006670" stop-opacity="1"></stop></linearGradient></defs><defs><linearGradient id="grad2_5" x1="0%" y1="0%" x2="66.7%" y2="100%"><stop offset="20%" stop-color="#004959" stop-opacity="1"></stop><stop offset="80%" stop-color="#006670" stop-opacity="1"></stop></linearGradient></defs><defs><linearGradient id="grad2_6" x1="0%" y1="0%" x2="66.7%" y2="100%"><stop offset="20%" stop-color="#004959" stop-opacity="1"></stop><stop offset="80%" stop-color="#132f3b" stop-opacity="1"></stop></linearGradient></defs><defs><linearGradient id="grad2_7" x1="0%" y1="0%" x2="66.7%" y2="100%"><stop offset="20%" stop-color="#171819" stop-opacity="1"></stop><stop offset="80%" stop-color="#132f3b" stop-opacity="1"></stop></linearGradient></defs><g transform="translate(900, 0)"><path d="M0 351.5C-33.7 336.6 -67.3 321.6 -99.2 305.3C-131 289 -161.1 271.4 -179.3 246.8C-197.5 222.1 -203.9 190.4 -232.2 168.7C-260.5 146.9 -310.8 135.1 -334.3 108.6C-357.9 82.2 -354.7 41.1 -351.5 0L0 0Z" fill="#18232a"></path><path d="M0 307.6C-29.5 294.5 -58.9 281.4 -86.8 267.1C-114.7 252.9 -140.9 237.5 -156.9 215.9C-172.8 194.3 -178.4 166.6 -203.2 147.6C-228 128.6 -271.9 118.2 -292.5 95.1C-313.1 71.9 -310.4 35.9 -307.6 0L0 0Z" fill="#003c4b"></path><path d="M0 263.7C-25.3 252.4 -50.5 241.2 -74.4 229C-98.3 216.7 -120.8 203.5 -134.5 185.1C-148.1 166.6 -152.9 142.8 -174.1 126.5C-195.4 110.2 -233.1 101.3 -250.8 81.5C-268.4 61.6 -266 30.8 -263.7 0L0 0Z" fill="#005766"></path><path d="M0 219.7C-21 210.4 -42.1 201 -62 190.8C-81.9 180.6 -100.7 169.6 -112 154.2C-123.4 138.8 -127.4 119 -145.1 105.4C-162.8 91.8 -194.2 84.4 -209 67.9C-223.7 51.4 -221.7 25.7 -219.7 0L0 0Z" fill="#007477"></path><path d="M0 175.8C-16.8 168.3 -33.7 160.8 -49.6 152.6C-65.5 144.5 -80.5 135.7 -89.6 123.4C-98.7 111.1 -101.9 95.2 -116.1 84.3C-130.3 73.5 -155.4 67.5 -167.2 54.3C-178.9 41.1 -177.4 20.5 -175.8 0L0 0Z" fill="#00917b"></path><path d="M0 131.8C-12.6 126.2 -25.3 120.6 -37.2 114.5C-49.1 108.4 -60.4 101.8 -67.2 92.5C-74.1 83.3 -76.4 71.4 -87.1 63.3C-97.7 55.1 -116.5 50.7 -125.4 40.7C-134.2 30.8 -133 15.4 -131.8 0L0 0Z" fill="#00ad73"></path><path d="M0 87.9C-8.4 84.1 -16.8 80.4 -24.8 76.3C-32.8 72.2 -40.3 67.8 -44.8 61.7C-49.4 55.5 -51 47.6 -58 42.2C-65.1 36.7 -77.7 33.8 -83.6 27.2C-89.5 20.5 -88.7 10.3 -87.9 0L0 0Z" fill="#1dc85f"></path><path d="M0 43.9C-4.2 42.1 -8.4 40.2 -12.4 38.2C-16.4 36.1 -20.1 33.9 -22.4 30.8C-24.7 27.8 -25.5 23.8 -29 21.1C-32.6 18.4 -38.8 16.9 -41.8 13.6C-44.7 10.3 -44.3 5.1 -43.9 0L0 0Z" fill="#54d550"></path></g><g transform="translate(0, 600)"><path d="M0 -351.5C32.8 -332.1 65.7 -312.6 97.3 -299.6C129 -286.6 159.5 -280.1 194.6 -267.8C229.7 -255.5 269.4 -237.3 284.4 -206.6C299.4 -176 289.7 -132.9 296.7 -96.4C303.8 -59.9 327.7 -30 351.5 0L0 0Z" fill="#18232a"></path><path d="M0 -307.6C28.7 -290.5 57.5 -273.5 85.2 -262.1C112.9 -250.8 139.5 -245.1 170.2 -234.3C201 -223.5 235.7 -207.6 248.9 -180.8C262 -154 253.5 -116.3 259.6 -84.4C265.8 -52.4 286.7 -26.2 307.6 0L0 0Z" fill="#003c4b"></path><path d="M0 -263.7C24.6 -249 49.3 -234.4 73 -224.7C96.7 -214.9 119.6 -210.1 145.9 -200.8C172.2 -191.6 202.1 -177.9 213.3 -155C224.6 -132 217.2 -99.7 222.5 -72.3C227.8 -44.9 245.8 -22.5 263.7 0L0 0Z" fill="#005766"></path><path d="M0 -219.7C20.5 -207.5 41.1 -195.4 60.8 -187.2C80.6 -179.1 99.7 -175.1 121.6 -167.4C143.5 -159.7 168.4 -148.3 177.8 -129.1C187.1 -110 181 -83.1 185.5 -60.3C189.9 -37.4 204.8 -18.7 219.7 0L0 0Z" fill="#007477"></path><path d="M0 -175.8C16.4 -166 32.8 -156.3 48.7 -149.8C64.5 -143.3 79.7 -140.1 97.3 -133.9C114.8 -127.7 134.7 -118.6 142.2 -103.3C149.7 -88 144.8 -66.5 148.4 -48.2C151.9 -30 163.8 -15 175.8 0L0 0Z" fill="#00917b"></path><path d="M0 -131.8C12.3 -124.5 24.6 -117.2 36.5 -112.3C48.4 -107.5 59.8 -105 73 -100.4C86.1 -95.8 101 -89 106.7 -77.5C112.3 -66 108.6 -49.8 111.3 -36.2C113.9 -22.5 122.9 -11.2 131.8 0L0 0Z" fill="#00ad73"></path><path d="M0 -87.9C8.2 -83 16.4 -78.1 24.3 -74.9C32.2 -71.6 39.9 -70 48.6 -66.9C57.4 -63.9 67.4 -59.3 71.1 -51.7C74.9 -44 72.4 -33.2 74.2 -24.1C75.9 -15 81.9 -7.5 87.9 0L0 0Z" fill="#1dc85f"></path><path d="M0 -43.9C4.1 -41.5 8.2 -39.1 12.2 -37.4C16.1 -35.8 19.9 -35 24.3 -33.5C28.7 -31.9 33.7 -29.7 35.6 -25.8C37.4 -22 36.2 -16.6 37.1 -12.1C38 -7.5 41 -3.7 43.9 0L0 0Z" fill="#54d550"></path></g></svg>