<?xml version="1.0" encoding="utf-8"?>
<!-- Generator: Adobe Illustrator 18.1.1, SVG Export Plug-In . SVG Version: 6.00 Build 0)  -->
<!DOCTYPE svg PUBLIC "-//W3C//DTD SVG 1.1//EN" "http://www.w3.org/Graphics/SVG/1.1/DTD/svg11.dtd">
<svg version="1.1" id="Слой_1" xmlns="http://www.w3.org/2000/svg" xmlns:xlink="http://www.w3.org/1999/xlink" x="0px" y="0px"
	 viewBox="0 0 150 25" enable-background="new 0 0 150 25" xml:space="preserve">
<g>
	<g>
		<linearGradient id="SVGID_2_" gradientUnits="userSpaceOnUse" x1="1.539290e-005" y1="12.5039" x2="150" y2="12.5039">
			<stop  offset="0" style="stop-color:#6DA6CE"/>
			<stop  offset="1" style="stop-color:#8AA273"/>
		</linearGradient>
		<path fill="url(#SVGID_2_)" d="M11.7,5.4c0.4,0.8,1.4,1.1,2.3,0.8c0.9-0.3,1.3-1.3,0.9-2.1l-1.3-3.2C13.3,0.3,12.7,0,12,0
			c-0.2,0-0.8,0-1,0.1c-0.9,0.3-1.3,1.4-0.9,2.1L11.7,5.4z M86.4,6.2c-0.8-1.5-2-2.7-3.4-3.6c-1.4-0.9-3.1-1.4-4.9-1.4
			c-0.4,0-0.7,0-1.1,0.1c-1.7,0.2-3.3,0.6-4.6,1.6c-0.4,0.3-0.7,0.7-1,1c-0.3-0.5-0.6-1-0.8-1.3c-0.5-0.7-0.9-0.8-1-0.8
			c-0.7-0.6-1.7-0.6-2.3,0c-0.6,0.7-1.4,1.4-0.7,2.1l0,0c0,0,0.9,0.5,1.3,1.2c0.2,0.4,0.4,0.9,0.6,1.4C68.6,7,69,7.3,69,8
			c0,5.5,0,16,0,16c0,0.9,1.1,1,2,1c0.9,0,2-0.1,2-1c0,0,0-3,0-5c0.4,0.2,0.4-0.4,0.8-0.2c1.4,0.6,2.8,1.2,4.2,1.2
			c0.4,0,0.8,0,1.2-0.1c1.2-0.1,2.3-0.5,3.3-1c1.5-0.8,2.7-2,3.6-3.4c0.9-1.4,1.4-3.1,1.4-4.8c0-0.4,0-0.7-0.1-1.1
			C87.3,8.3,87,7.2,86.4,6.2z M82.3,14.4c-0.5,0.5-1,0.9-1.7,1.2c-0.6,0.3-1.3,0.5-2.1,0.6c-0.3,0-0.5,0-0.8,0c-1,0-1.9-0.2-2.9-0.6
			c-0.8-0.3-1-1.1-1.8-1.7c0-2.3,0-5.9,0-6c0.5-1,0.5-1.4,1.3-1.9C75,5.5,76,5.2,77.1,5c0.2,0,0.5,0,0.7,0c1.5,0,2.9,0.5,4,1.4
			c0.5,0.4,1,1,1.3,1.6c0.3,0.6,0.6,1.3,0.7,2c0,0.2,0,0.5,0,0.7C83.8,12.1,83.3,13.4,82.3,14.4z M41.6,2.5
			c-1.5-0.9-3.1-1.3-4.7-1.3c-0.4,0-0.8,0-1.2,0.1c-0.9,0.1-1.5,0.9-1.4,1.8c0.1,0.9,1.1,2,1.9,1.9c0.2,0,0.5,0,0.7,0
			c1,0,1.9,0.2,2.8,0.8c0.9,0.5,1.6,1.3,2.1,2.1c0.5,0.8,0.7,1.8,0.7,2.8c0,1-0.2,1.9-0.8,2.8c-0.5,0.9-1.3,1.6-2.1,2.1
			c-0.9,0.5-1.8,0.7-2.8,0.7c-1,0-1.9-0.2-2.8-0.8c-0.9-0.5-1.6-1.3-2.1-2.1c-0.5-0.8-0.7-1.8-0.7-2.8c0-1,0.2-1.9,0.8-2.8
			c0.1-0.2,0.3-0.4,0.4-0.6c0.5-0.6-0.1-2-0.8-2.5c-0.7-0.5-1.3-0.1-2,0.3c-0.3,0.2-0.6,0.6-0.8,1c-0.9,1.5-1.3,3.1-1.3,4.7
			c0,1.6,0.4,3.2,1.2,4.6c0.8,1.4,2,2.6,3.5,3.5c1.5,0.9,3.1,1.3,4.7,1.3c1.6,0,3.2-0.4,4.6-1.2c1.4-0.8,2.6-2,3.5-3.5
			c0.9-1.5,1.3-3.1,1.3-4.7c0-1.6-0.4-3.2-1.2-4.6C44.3,4.6,43.1,3.4,41.6,2.5z M28.5,3.8c0.6-0.7,0.4-1.7-0.3-2.3
			c-0.7-0.5-2.5-0.4-3,0.3c-0.4,0.5-0.7,0.7-1.1,1.2c-0.5,0.8-1,1.4-1.3,2.3l-3.2,9.2l-3.3-6.3c-0.3-0.5-0.8-0.8-1.4-0.8
			c-0.6,0-1.1,0.3-1.4,0.8L10,14.7L3.8,1.1C3.5,0.5,2.9,0,2.3,0h0C2,0,1.5,0.1,1.3,0.1C0.5,0.5-0.3,1.5,0.1,2.3L7.2,19
			c0.2,0.6,1.7,1,2.3,1c0.6,0,1.2-0.3,1.6-0.8l3.7-6.2l3.6,6.2c0.3,0.5,0.9,0.9,1.6,0.8c0.6,0,1.6-0.7,1.8-1.2l4.7-12.3
			c0.3-0.7,0.6-0.9,1-1.5C27.7,4.5,28.1,4.2,28.5,3.8z M61.6,2.5c-1.5-0.8-3.1-1.3-4.7-1.3c-0.4,0-0.8,0-1.2,0.1
			c-0.9,0.1-1.2,0.6-1.1,1.5c0.1,0.9,0.7,2.2,1.5,2.1c0.2,0,0.5,0,0.7,0c1,0,1.9,0.2,2.9,0.8c0.9,0.5,1.6,1.3,2.1,2.1
			c0.5,0.9,0.7,1.8,0.7,2.8c0,1-0.2,1.9-0.8,2.8c-0.5,0.9-1.3,1.6-2.1,2.1c-0.9,0.5-1.8,0.7-2.8,0.7c-1,0-1.9-0.2-2.9-0.8
			c-0.9-0.5-1.6-1.3-2.1-2.1c-0.5-0.9-0.7-1.8-0.7-2.8c0-1,0.2-1.9,0.8-2.8c0.1-0.2,0.3-0.4,0.4-0.6c0.5-0.6,0.2-2.1-0.5-2.7
			C51.1,4,49.9,4.3,49.4,5c-0.2,0.3-0.4,0.6-0.6,1c-0.9,1.5-1.3,3.1-1.3,4.7c0,1.6,0.4,3.2,1.2,4.6c0.8,1.4,2,2.6,3.5,3.5
			c1.5,0.8,3.1,1.3,4.7,1.3c1.6,0,3.2-0.4,4.6-1.2c1.4-0.8,2.6-2,3.5-3.5c0.9-1.5,1.3-3.1,1.3-4.7c0-1.6-0.4-3.2-1.2-4.6
			C64.3,4.6,63.1,3.4,61.6,2.5z M129.9,9.9c0-1.4-0.2-2.9-0.8-4.1c-0.2-0.4-0.4-0.7-0.7-1c-0.6-0.7-2.1-1.4-2.8-0.9
			c-0.7,0.6-0.7,2-0.2,2.7c0.2,0.2,0.3,0.5,0.4,0.7c0.4,0.6,0.4,2.3,0.4,3.4c0,1.1-0.3,1.7-0.8,2.7c-0.6,1-1,1.7-2.1,2.3
			c-1,0.6-2.1,0.6-3.2,0.6c-1.1,0-2.2-0.1-3.2-0.6c-1-0.5-1.8-1.2-2.4-2.2c-0.6-1-0.8-1.7-0.8-2.8c0-1.1,0.2-2.2,0.8-3.2
			c0.6-1,1.4-1.6,2.4-2.2c1-0.6,2.1-0.4,3.2-0.4c0.3,0,0.6-0.1,0.8,0c0.9,0.1,1.4-0.9,1.5-1.8c0.1-0.9-0.5-1.7-1.4-1.8
			c-0.4-0.1-0.8-0.1-1.3-0.1c-1.7,0-3.4,0.1-4.9,1c-1.6,0.9-2.8,2.2-3.6,3.6c-0.8,1.5-1.3,3.1-1.3,4.8c0,1.7,0.4,3.3,1.3,4.9
			c0.9,1.6,2.2,2.3,3.7,3.1c1.5,0.8,3.1,1.3,4.8,1.3c1.7,0,3.4-0.4,4.9-1.3c1.2-0.7,2.2-1.1,3-2.2c0.4,0.8,0.8,2,1.3,2.7
			c0.5,0.8,1.5,1,2.3,0.5c0.8-0.5,1.6-1.8,1.1-2.6C131.1,15.1,129.9,12.6,129.9,9.9z M148.2,1.2c-0.9,0-1.9,0.7-1.9,1.7v10.5
			c-0.7,0.5-0.9,0.9-1.7,1.1c-1.9,0.7-3.1,0.9-5.2,0.3c-1.1-0.3-2.1-1.5-2.8-3.1c-0.4-1-0.4-2.1-0.4-3.1c0-2.2-0.5-3.8-1-4.9
			c-0.5-1.1-1.2-1.7-1.3-1.8c-0.6-0.7-2.3-0.8-2.9-0.1c-0.7,0.6-1.4,1-0.8,1.7c0,0,0.3,0.4,0.6,1.1c0.5,1.3,1.7,3.2,1.7,4.6
			c0,2.2,0,4.1,1.3,6c1,1.3,2.3,2.5,3.9,3.1c2.6,1,5.1,0.7,7.7-0.2c0.3-0.1,0.5-0.3,0.8-0.5c-0.4,1.3-1.1,2.6-2.4,3.1
			c-2.5,1.1-5.6,0.7-7.9-0.5c-0.8-0.4-1.5,0.1-1.9,0.9c-0.4,0.8-0.1,1.8,0.7,2.2c2,1.1,3.9,1.7,6.3,1.7c1.3,0,2.6-0.2,3.9-0.7
			c1.8-0.7,3.4-2,4.3-3.7c0.6-1.1,0.9-2.4,0.9-3.7V2.7C149.9,1.8,149.1,1.2,148.2,1.2z M107.7,6.2c-0.8-1.5-2-2.7-3.4-3.6
			c-1.4-0.9-3.1-1.4-4.9-1.4c-0.4,0-0.7,0-1.1,0.1c-1.7,0.2-3.3,0.6-4.6,1.6c-0.4,0.3-0.7,0.7-1,1c-0.3-0.5-0.6-1-0.8-1.3
			c-0.5-0.7-0.9-0.8-1-0.8c-0.7-0.6-1.7-0.6-2.3,0c-0.6,0.7-1.4,1.4-0.7,2.1l0,0c0,0,0.9,0.5,1.3,1.2c0.2,0.4,0.4,0.9,0.6,1.4
			C89.9,7,90,7.6,90,8.3c0,5.5,0,15.3,0,15.3c0,0.9,1,1.3,1.9,1.3c0.9,0,1.9-0.4,1.9-1.3c0,0,0-3,0-5c0.4,0.2,0.9-0.1,1.3,0.1
			c1.4,0.6,2.8,1.2,4.2,1.2c0.4,0,0.8,0,1.2-0.1c1.2-0.1,2.3-0.5,3.3-1c1.5-0.8,2.7-2,3.6-3.4c0.9-1.4,1.4-3.1,1.4-4.8
			c0-0.4,0-0.7-0.1-1.1C108.6,8.3,108.2,7.2,107.7,6.2z M103.6,14.4c-0.5,0.5-1,0.9-1.7,1.2c-0.6,0.3-1.3,0.5-2.1,0.6
			c-0.3,0-0.5,0-0.8,0c-1,0-1.9-0.2-2.9-0.6c-0.8-0.3-1.5-1.4-2.3-2c0-2.3,0-5.5,0-5.6c0.5-1,1-1.4,1.7-2c0.8-0.6,1.7-0.9,2.8-1.1
			c0.2,0,0.5,0,0.7,0c1.5,0,2.9,0.5,4,1.4c0.5,0.4,1,1,1.3,1.6c0.3,0.6,0.6,1.3,0.7,2c0,0.2,0,0.5,0,0.7
			C105.1,12.1,104.5,13.4,103.6,14.4z"/>
	</g>
</g>
</svg>
